<svg width="200" height="200" viewBox="0 0 200 200" xmlns="http://www.w3.org/2000/svg">
  <defs>
    <linearGradient id="logoGradient" x1="0%" y1="0%" x2="100%" y2="100%">
      <stop offset="0%" style="stop-color:#A855F7;stop-opacity:1" />
      <stop offset="100%" style="stop-color:#EC4899;stop-opacity:1" />
    </linearGradient>
  </defs>

  <!-- Outer circle -->
  <circle cx="100" cy="100" r="90" fill="url(#logoGradient)"/>

  <!-- Checkmark -->
  <path d="M100 40C72.386 40 50 62.386 50 90s22.386 50 50 50 50-22.386 50-50-22.386-50-50-50zm-7.5 75l-18.75-18.75 5.28-5.28L90 101.94l28.97-28.97 5.28 5.28L92.5 115z" fill="white"/>

  <!-- Cat silhouette accent -->
  <g opacity="0.2" transform="translate(130, 130) scale(0.4)">
    <path d="M35 25c-3-6-9-6-12 0-3-6-9-6-12 0-4 8 2 14 12 18 10-4 16-10 12-18z" fill="white"/>
    <circle cx="20" cy="30" r="3" fill="white"/>
    <circle cx="32" cy="30" r="3" fill="white"/>
  </g>
</svg>
